<?xml version="1.0" encoding="utf-8"?>
<!-- Generator: Adobe Illustrator 19.2.1, SVG Export Plug-In . SVG Version: 6.00 Build 0)  -->
<svg version="1.1" id="Слой_1" xmlns="http://www.w3.org/2000/svg" xmlns:xlink="http://www.w3.org/1999/xlink" x="0px" y="0px"
	 viewBox="0 0 126 22" style="enable-background:new 0 0 126 22;" xml:space="preserve">
<style type="text/css">
	.st0{fill:#2EADFF;}
</style>
<g>
	<path class="st0" d="M107.4,21.8c-0.7,0-1.3-0.6-1.3-1.3c0,0,0,0,0,0c0-0.7,0.6-1.3,1.3-1.3c0.7,0,1.3,0.6,1.3,1.3
		C108.7,21.2,108.1,21.8,107.4,21.8L107.4,21.8z M107.4,18c-0.7,0-1.3-0.6-1.3-1.3c0,0,0,0,0,0c0-0.7,0.6-1.3,1.3-1.3
		c0.7,0,1.3,0.6,1.3,1.3C108.7,17.4,108.1,18,107.4,18L107.4,18z M107.4,14.2c-0.7,0-1.3-0.6-1.3-1.3c0,0,0,0,0,0
		c0-0.7,0.6-1.3,1.3-1.3c0.7,0,1.3,0.6,1.3,1.3C108.7,13.6,108.1,14.2,107.4,14.2L107.4,14.2z M107.5,10.4c-0.7,0-1.3-0.6-1.3-1.3
		c0,0,0,0,0,0c0-0.7,0.6-1.3,1.3-1.3c0.7,0,1.3,0.6,1.3,1.3C108.7,9.8,108.2,10.4,107.5,10.4z M107.5,6.6c-0.7,0-1.3-0.6-1.3-1.3
		c0,0,0,0,0,0c0-0.7,0.6-1.3,1.3-1.3c0,0,0,0,0,0c0.7,0,1.3,0.6,1.3,1.3C108.7,6,108.2,6.6,107.5,6.6L107.5,6.6z M107.5,2.8
		c-0.7,0-1.3-0.6-1.3-1.3c0,0,0,0,0,0c0-0.7,0.6-1.3,1.3-1.3c0,0,0,0,0,0c0.7,0,1.3,0.6,1.3,1.3C108.7,2.2,108.2,2.8,107.5,2.8
		L107.5,2.8z M12,4H8.6L4.8,7.9c-1.3,1.3-2,2.1-2,2.1h0c0,0,0-0.8,0-3.1V4H0.1V18h2.8v-4.7l1.6-1.6L8.9,18h3.3l-6-8.1
		C6.2,9.9,12,4,12,4z M23.3,11.9c0,2.6-1.1,3.8-3.2,3.8c-2.1,0-3.2-1.2-3.2-3.8V4H14v7.9c0,4.1,2.3,6.3,6,6.3c3.7,0,6-2.2,6-6.3V4
		h-2.8C23.3,4,23.3,11.9,23.3,11.9z M33.8,4h-5V18h2.8v-4.6h2.2c3.3,0,5.4-1.8,5.4-4.7C39.1,5.8,37.1,4,33.8,4z M33.7,10.8h-2.1V6.6
		h2.1c1.6,0,2.6,0.8,2.6,2.1C36.3,10,35.3,10.8,33.7,10.8L33.7,10.8z M41.1,4h2.8V18h-2.8V4z M55.1,10.4L55.1,10.4
		c0.9-0.3,1.9-1.5,1.9-2.8c0-2-1.7-3.6-4.2-3.6h-5.8V18H53c3.3,0,4.9-1.8,4.9-4.2C57.8,12.2,56.5,10.7,55.1,10.4L55.1,10.4z
		 M49.9,6.4h2.4c1.1,0,1.9,0.7,1.9,1.6c0,0.9-0.8,1.6-1.9,1.6h-2.4L49.9,6.4L49.9,6.4z M52.7,15.6h-2.8v-3.9h2.8
		c1.3,0,2.2,0.8,2.2,1.9C54.9,14.8,54,15.6,52.7,15.6z M60.2,4H63V18h-2.8V4z M69,4h-2.8V18h9.6v-2.6H69V4z M80.7,12h5.6V9.6h-5.6
		v-3h7.1V4h-9.8V18h10v-2.6h-7.2C80.7,15.4,80.7,12,80.7,12z M89.5,4v2.6h4.3V18h2.8V6.6h4.4V4H89.5z"/>
	<g>
		<path class="st0" d="M118.7,6.1c0-1.3-1-2.2-2.6-2.2h-2.3v6.5h1.3V8.2h1.1l1.3,2.2h1.5l-1.5-2.5C118.2,7.6,118.7,7,118.7,6.1
			L118.7,6.1z M116.3,7h-1.2V5.1h1.2c0.7,0,1.1,0.5,1.1,1C117.3,6.6,117,7,116.3,7z M124,3.9v3.7c0,1.2-0.5,1.8-1.5,1.8
			c-1,0-1.5-0.6-1.5-1.8V3.9h-1.3v3.7c0,1.9,1.1,3,2.8,3c1.7,0,2.8-1,2.8-3V3.9H124L124,3.9z"/>
	</g>
</g>
</svg>
