<svg width="126" height="22" viewBox="0 0 126 22" xmlns="http://www.w3.org/2000/svg"><g fill="#0084E8" fill-rule="evenodd"><path d="M107.436 21.76a1.264 1.264 0 0 1-1.274-1.273c0-.702.57-1.257 1.274-1.257.702 0 1.276.572 1.276 1.257 0 .72-.574 1.274-1.276 1.274zm0-3.796a1.264 1.264 0 0 1-1.274-1.275c0-.703.57-1.258 1.274-1.258.702 0 1.276.573 1.276 1.257 0 .72-.574 1.274-1.276 1.274zm0-3.8a1.265 1.265 0 0 1-1.274-1.273c0-.7.57-1.256 1.274-1.256.702 0 1.276.574 1.276 1.257 0 .72-.574 1.275-1.276 1.275zm.017-3.797a1.265 1.265 0 0 1-1.275-1.274c0-.7.572-1.257 1.275-1.257.7 0 1.274.572 1.274 1.257 0 .72-.573 1.274-1.274 1.274zm0-3.796a1.265 1.265 0 0 1-1.275-1.273 1.26 1.26 0 0 1 1.275-1.257c.7 0 1.274.572 1.274 1.257 0 .72-.573 1.274-1.274 1.274zm0-3.795a1.265 1.265 0 0 1-1.275-1.274 1.26 1.26 0 0 1 1.275-1.256c.7 0 1.274.572 1.274 1.257 0 .722-.573 1.275-1.274 1.275zM12.03 4.04h-3.4L4.81 7.858c-1.293 1.293-1.97 2.05-1.99 2.05H2.8c-.02 0 .02-.836.02-3.123V4.04H.057v13.923H2.82V13.27l1.552-1.553 4.554 6.246h3.282L6.2 9.888l5.83-5.848zM23.27 11.876c0 2.587-1.116 3.78-3.225 3.78-2.127 0-3.24-1.193-3.24-3.78V4.04H14.04v7.876c0 4.098 2.327 6.324 6.005 6.324 3.66 0 6.008-2.227 6.008-6.324V4.04H23.27v7.836zM33.75 4.04h-4.972v13.923h2.764v-4.595h2.208c3.34 0 5.37-1.75 5.37-4.674 0-2.904-2.028-4.654-5.37-4.654zm-.06 6.743h-2.147V6.625h2.148c1.59 0 2.567.758 2.567 2.07 0 1.292-.935 2.088-2.566 2.088zM41.07 4.04h2.765v13.923H41.07zM55.133 10.424v-.02c.936-.278 1.93-1.432 1.93-2.764 0-2.03-1.69-3.6-4.157-3.6h-5.768V17.96h5.848c3.28 0 4.852-1.83 4.852-4.178 0-1.61-1.372-3.06-2.705-3.36zm-5.23-4.035h2.446c1.132 0 1.927.654 1.927 1.59 0 .894-.795 1.61-1.928 1.61H49.9v-3.2zm2.824 9.225h-2.824v-3.898h2.805c1.252 0 2.227.775 2.227 1.95 0 1.174-.895 1.948-2.208 1.948zM60.186 4.04h2.764v13.923h-2.764zM69.017 4.04h-2.765v13.923H75.9V15.38h-6.883V4.04zM80.712 12.017h5.59V9.59h-5.59V6.624h7.08V4.04H77.95v13.923h9.964V15.38h-7.202v-3.363zM89.546 4.04v2.585h4.334v11.338h2.765V6.625h4.377V4.04H89.546z"/><g><path d="M118.656 6.07c0-1.313-.96-2.18-2.562-2.18h-2.283v6.522h1.296V8.185h1.061l1.296 2.227h1.454l-1.49-2.47c.792-.325 1.23-.977 1.23-1.873zm-2.393.96h-1.157V5.1h1.157c.706 0 1.052.457 1.052.97 0 .494-.336.96-1.052.96zM124.032 3.89v3.672c0 1.212-.52 1.77-1.51 1.77-.995 0-1.518-.558-1.518-1.77v-3.67h-1.295V7.58c0 1.92 1.088 2.964 2.81 2.964 1.717 0 2.815-1.045 2.815-2.964V3.89h-1.303z"/></g></g></svg>